<?xml version="1.0" standalone="no"?>
<!DOCTYPE svg PUBLIC "-//W3C//DTD SVG 20010904//EN"
 "http://www.w3.org/TR/2001/REC-SVG-20010904/DTD/svg10.dtd">
<svg version="1.0" xmlns="http://www.w3.org/2000/svg"
 width="1000.000000pt" height="1000.000000pt" viewBox="0 0 1000.000000 1000.000000"
 preserveAspectRatio="xMidYMid meet">
<metadata>
Created by potrace 1.11, written by Peter Selinger 2001-2013
</metadata>
<g transform="translate(0.000000,1000.000000) scale(0.100000,-0.100000)"
fill="#000000" stroke="none">
<path d="M0 5000 l0 -5000 5000 0 5000 0 0 5000 0 5000 -5000 0 -5000 0 0
-5000z m1010 4724 c200 -59 355 -215 416 -419 24 -81 24 -239 0 -320 -61 -206
-215 -360 -421 -421 -40 -12 -93 -18 -160 -18 -168 0 -309 58 -425 174 -116
116 -174 257 -174 425 0 116 17 184 72 290 82 158 259 280 447 309 52 8 189
-3 245 -20z m2800 0 c200 -59 355 -215 416 -419 24 -81 24 -239 0 -320 -61
-206 -215 -360 -421 -421 -40 -12 -93 -18 -160 -18 -67 0 -120 6 -160 18 -206
61 -360 215 -421 421 -24 81 -24 239 0 320 69 233 262 402 501 439 52 8 189
-3 245 -20z m2960 0 c200 -59 355 -215 416 -419 24 -81 24 -239 0 -320 -61
-206 -215 -360 -421 -421 -40 -12 -93 -18 -160 -18 -168 0 -309 58 -425 174
-116 116 -174 257 -174 425 0 116 17 184 72 290 82 158 259 280 447 309 52 8
189 -3 245 -20z m2550 0 c200 -59 355 -215 416 -419 24 -81 24 -239 0 -320
-61 -206 -215 -360 -421 -421 -40 -12 -93 -18 -160 -18 -168 0 -309 58 -425
174 -116 116 -174 257 -174 425 0 116 17 184 72 290 82 158 259 280 447 309
52 8 189 -3 245 -20z m-4560 -2649 c0 -532 -3 -676 -12 -679 -7 -3 -692 -16
-1523 -31 -830 -15 -1511 -28 -1512 -29 -4 -3 17 -1039 21 -1044 3 -2 589 7
1303 20 714 13 1301 22 1305 19 8 -7 -14 -1147 -23 -1155 -3 -3 -583 -9 -1290
-13 l-1284 -6 3 -186 c1 -102 9 -528 16 -946 7 -418 11 -763 7 -766 -3 -4
-322 -9 -707 -13 l-702 -7 -6 208 c-15 475 -117 5226 -112 5231 3 2 994 19
2203 37 1209 18 2224 33 2256 34 l57 1 0 -675z m5000 0 c0 -532 -3 -676 -12
-679 -7 -3 -692 -16 -1523 -31 -830 -15 -1511 -28 -1512 -29 -4 -3 17 -1039
21 -1044 3 -2 589 7 1303 20 714 13 1301 22 1305 19 8 -7 -14 -1147 -23 -1155
-3 -3 -583 -9 -1290 -13 l-1284 -6 3 -186 c1 -102 9 -528 16 -946 7 -418 11
-763 7 -766 -3 -4 -322 -9 -707 -13 l-702 -7 -6 208 c-15 475 -117 5226 -112
5231 3 2 994 19 2203 37 1209 18 2224 33 2256 34 l57 1 0 -675z m-8750 -5641
c200 -59 355 -215 416 -419 24 -81 24 -239 0 -320 -61 -206 -215 -360 -421
-421 -81 -24 -239 -24 -320 0 -158 47 -297 158 -367 291 -55 106 -72 174 -72
290 0 116 17 184 72 290 82 158 259 280 447 309 52 8 189 -3 245 -20z m2800 0
c200 -59 355 -215 416 -419 24 -81 24 -239 0 -320 -61 -206 -215 -360 -421
-421 -81 -24 -239 -24 -320 0 -206 61 -360 215 -421 421 -24 81 -24 239 0 320
69 233 262 402 501 439 52 8 189 -3 245 -20z m2960 0 c200 -59 355 -215 416
-419 24 -81 24 -239 0 -320 -47 -158 -158 -297 -291 -367 -106 -55 -174 -72
-290 -72 -168 0 -309 58 -425 174 -116 116 -174 257 -174 425 0 116 17 184 72
290 82 158 259 280 447 309 52 8 189 -3 245 -20z m2550 0 c200 -59 355 -215
416 -419 24 -81 24 -239 0 -320 -47 -158 -158 -297 -291 -367 -106 -55 -174
-72 -290 -72 -168 0 -309 58 -425 174 -116 116 -174 257 -174 425 0 116 17
184 72 290 82 158 259 280 447 309 52 8 189 -3 245 -20z"/>
</g>
</svg>
